<?xml version="1.0" standalone="no"?>
<!DOCTYPE svg PUBLIC "-//W3C//DTD SVG 20010904//EN"
 "http://www.w3.org/TR/2001/REC-SVG-20010904/DTD/svg10.dtd">
<svg version="1.0" xmlns="http://www.w3.org/2000/svg"
 width="906.000000pt" height="906.000000pt" viewBox="0 0 906.000000 906.000000"
 preserveAspectRatio="xMidYMid meet">
<metadata>
Created by potrace 1.11, written by Peter Selinger 2001-2013
</metadata>
<g transform="translate(0.000000,906.000000) scale(0.100000,-0.100000)"
fill="#000000" stroke="none">
<path d="M535 7410 c-267 -40 -475 -257 -515 -535 -8 -58 -10 -711 -8 -2390 3
-2198 4 -2313 22 -2370 50 -165 174 -318 315 -388 l74 -37 -54 -1 -54 -1 50
-14 c42 -11 389 -14 2135 -15 1147 -1 2060 -5 2030 -9 -30 -4 96 -7 280 -8
l335 -2 91 143 c81 126 284 439 459 707 148 228 204 313 402 620 116 179 283
438 373 575 89 138 194 299 233 358 l70 109 44 -69 c80 -124 139 -216 223
-348 45 -71 97 -152 115 -180 17 -27 84 -132 148 -232 205 -321 340 -533 472
-738 144 -226 157 -246 329 -515 69 -107 159 -248 200 -313 l76 -117 335 0
335 0 -33 50 c-38 59 -249 372 -522 775 -108 160 -257 380 -331 490 -248 367
-498 738 -635 940 -75 110 -206 304 -292 431 l-156 232 201 293 c111 162 267
389 347 506 80 117 200 291 266 388 66 97 140 205 165 240 25 36 103 149 173
252 156 228 380 556 437 638 271 394 360 524 360 529 0 3 -139 6 -309 6 l-309
0 -183 -277 c-201 -305 -478 -725 -900 -1363 -151 -228 -333 -504 -404 -612
-72 -109 -132 -198 -135 -198 -3 0 -45 63 -95 140 -49 77 -131 204 -182 283
-51 78 -109 169 -130 202 -20 33 -78 123 -128 200 -50 77 -306 473 -568 881
l-477 741 -472 6 c-260 4 -1142 7 -1960 7 l-1488 0 0 -1097 1 -1098 37 71
c161 302 470 541 838 644 352 99 765 87 1080 -32 572 -215 987 -804 1081
-1537 21 -169 24 -639 5 -806 -39 -326 -99 -540 -223 -788 -218 -437 -574
-752 -1006 -891 -188 -60 -268 -71 -523 -71 -195 1 -239 4 -330 24 -265 57
-480 161 -673 326 -86 74 -166 169 -241 289 l-56 89 0 -316 0 -317 -240 0
-240 0 0 2755 0 2755 -107 -1 c-60 -1 -130 -5 -158 -9z"/>
<path d="M2505 5570 c-237 -20 -455 -107 -652 -259 -203 -156 -359 -387 -453
-668 -49 -147 -74 -260 -95 -432 -24 -190 -16 -624 14 -791 75 -407 233 -709
481 -917 129 -108 290 -188 488 -240 87 -23 116 -26 272 -27 148 0 189 4 264
22 378 95 676 346 844 712 123 267 176 559 176 960 0 233 -12 377 -50 567 -87
444 -301 767 -624 946 -183 101 -425 147 -665 127z"/>
<path d="M1048 1643 c56 -2 148 -2 205 0 56 1 10 3 -103 3 -113 0 -159 -2
-102 -3z"/>
</g>
</svg>
